<svg xmlns="http://www.w3.org/2000/svg" viewBox="0 0 1200 630"><defs><linearGradient id="g" x1="0" y1="0" x2="1" y2="1"><stop offset="0%" stop-color="#1c2233"/><stop offset="100%" stop-color="#354867"/></linearGradient></defs><rect width="1200" height="630" rx="38" fill="url(#g)"/><circle cx="1064" cy="72" r="98" fill="#ffffff" fill-opacity=".09"/><circle cx="1140" cy="106" r="124" fill="#ffffff" fill-opacity=".05"/><circle cx="54" cy="586" r="120" fill="#ffffff" fill-opacity=".04"/><rect x="68" y="64" width="670" height="502" rx="34" fill="#0d172b" fill-opacity=".18" stroke="#ffffff" stroke-opacity=".12"/><text x="90" y="142" font-family="Inter, Arial, sans-serif" font-size="54" font-weight="700" fill="#ffffff">Media e articolo 17</text><text x="90" y="188" font-family="Inter, Arial, sans-serif" font-size="28" fill="#d9e6ff">Censura visiva e informazione</text><text x="90" y="250" font-family="Inter, Arial, sans-serif" font-size="26" fill="#eaf1ff" opacity=".84">TV e stampa</text><text x="90" y="284" font-family="Inter, Arial, sans-serif" font-size="26" fill="#eaf1ff" opacity=".84">Immagini di esseri viventi</text><text x="90" y="318" font-family="Inter, Arial, sans-serif" font-size="26" fill="#eaf1ff" opacity=".84">Contenuti contrari alla sharia</text><rect x="90" y="478" width="174" height="14" rx="7" fill="#9bb4ff" opacity=".92"/><rect x="90" y="514" width="306" height="12" rx="6" fill="#ffffff" fill-opacity=".34"/><rect x="416" y="514" width="188" height="12" rx="6" fill="#ffffff" fill-opacity=".18"/><rect x="760" y="110" width="280" height="180" rx="30" fill="#7f93c8" fill-opacity=".18" stroke="#7f93c8"/><rect x="804" y="145" width="190" height="110" rx="18" fill="#ffffff" fill-opacity=".12" stroke="#ffffff" stroke-opacity=".28"/><circle cx="900" cy="201" r="36" fill="#9bb4ff" fill-opacity=".72"/><rect x="797" y="306" width="142" height="12" rx="6" fill="#ffffff" fill-opacity=".5"/></svg>