<svg xmlns="http://www.w3.org/2000/svg" viewBox="0 0 1200 630"><defs><linearGradient id="g" x1="0" y1="0" x2="1" y2="1"><stop offset="0%" stop-color="#10233f"/><stop offset="100%" stop-color="#285792"/></linearGradient></defs><rect width="1200" height="630" rx="38" fill="url(#g)"/><circle cx="1064" cy="72" r="98" fill="#ffffff" fill-opacity=".09"/><circle cx="1140" cy="106" r="124" fill="#ffffff" fill-opacity=".05"/><circle cx="54" cy="586" r="120" fill="#ffffff" fill-opacity=".04"/><rect x="68" y="64" width="670" height="502" rx="34" fill="#0d172b" fill-opacity=".18" stroke="#ffffff" stroke-opacity=".12"/><text x="90" y="142" font-family="Inter, Arial, sans-serif" font-size="54" font-weight="700" fill="#ffffff">Legge del 2024</text><text x="90" y="188" font-family="Inter, Arial, sans-serif" font-size="28" fill="#d9e6ff">Punti principali e articoli più citati</text><text x="90" y="250" font-family="Inter, Arial, sans-serif" font-size="26" fill="#eaf1ff" opacity=".84">Articolo 13</text><text x="90" y="284" font-family="Inter, Arial, sans-serif" font-size="26" fill="#eaf1ff" opacity=".84">Articolo 17</text><text x="90" y="318" font-family="Inter, Arial, sans-serif" font-size="26" fill="#eaf1ff" opacity=".84">Applicazione nei luoghi pubblici</text><rect x="90" y="478" width="174" height="14" rx="7" fill="#88bbff" opacity=".92"/><rect x="90" y="514" width="306" height="12" rx="6" fill="#ffffff" fill-opacity=".34"/><rect x="416" y="514" width="188" height="12" rx="6" fill="#ffffff" fill-opacity=".18"/><rect x="780" y="92" width="248" height="168" rx="28" fill="#98c9ff" fill-opacity=".22" stroke="#98c9ff" /><rect x="840" y="128" width="128" height="18" rx="9" fill="#ffffff" fill-opacity=".75"/><rect x="840" y="164" width="150" height="16" rx="8" fill="#ffffff" fill-opacity=".42"/><rect x="840" y="196" width="98" height="16" rx="8" fill="#ffffff" fill-opacity=".42"/><path d="M776 314c38-54 72-80 118-80 49 0 74 28 103 28 36 0 61-26 93-77" fill="none" stroke="#88bbff" stroke-width="12" stroke-linecap="round"/></svg>