<svg xmlns="http://www.w3.org/2000/svg" viewBox="0 0 1200 630"><defs><linearGradient id="g" x1="0" y1="0" x2="1" y2="1"><stop offset="0%" stop-color="#12343a"/><stop offset="100%" stop-color="#1a6b7f"/></linearGradient></defs><rect width="1200" height="630" rx="38" fill="url(#g)"/><circle cx="1064" cy="72" r="98" fill="#ffffff" fill-opacity=".09"/><circle cx="1140" cy="106" r="124" fill="#ffffff" fill-opacity=".05"/><circle cx="54" cy="586" r="120" fill="#ffffff" fill-opacity=".04"/><rect x="68" y="64" width="670" height="502" rx="34" fill="#0d172b" fill-opacity=".18" stroke="#ffffff" stroke-opacity=".12"/><text x="90" y="142" font-family="Inter, Arial, sans-serif" font-size="54" font-weight="700" fill="#ffffff">Spazi pubblici</text><text x="90" y="188" font-family="Inter, Arial, sans-serif" font-size="28" fill="#d9e6ff">Accesso limitato nella vita quotidiana</text><text x="90" y="250" font-family="Inter, Arial, sans-serif" font-size="26" fill="#eaf1ff" opacity=".84">Parchi</text><text x="90" y="284" font-family="Inter, Arial, sans-serif" font-size="26" fill="#eaf1ff" opacity=".84">Palestre</text><text x="90" y="318" font-family="Inter, Arial, sans-serif" font-size="26" fill="#eaf1ff" opacity=".84">Bagni pubblici</text><rect x="90" y="478" width="174" height="14" rx="7" fill="#7ce8dd" opacity=".92"/><rect x="90" y="514" width="306" height="12" rx="6" fill="#ffffff" fill-opacity=".34"/><rect x="416" y="514" width="188" height="12" rx="6" fill="#ffffff" fill-opacity=".18"/><circle cx="820" cy="146" r="48" fill="#7ce8dd" fill-opacity=".88"/><path d="M784 324h250" stroke="#ffffff" stroke-opacity=".55" stroke-width="16" stroke-linecap="round"/><path d="M842 324v-106" stroke="#ffffff" stroke-opacity=".55" stroke-width="16" stroke-linecap="round"/><path d="M976 324v-106" stroke="#ffffff" stroke-opacity=".55" stroke-width="16" stroke-linecap="round"/><path d="M782 356h255" stroke="#8ad5dd" stroke-width="10" stroke-linecap="round"/></svg>