<svg xmlns="http://www.w3.org/2000/svg" viewBox="0 0 1200 700"><defs><linearGradient id="sky" x1="0" y1="0" x2="0" y2="1"><stop offset="0%" stop-color="#9fc6ff"/><stop offset="55%" stop-color="#d8e7ff"/><stop offset="100%" stop-color="#f4efe8"/></linearGradient><linearGradient id="mount" x1="0" y1="0" x2="1" y2="1"><stop offset="0%" stop-color="#7d6f86"/><stop offset="100%" stop-color="#4f485b"/></linearGradient><linearGradient id="city" x1="0" y1="0" x2="0" y2="1"><stop offset="0%" stop-color="#b18d6f"/><stop offset="100%" stop-color="#705846"/></linearGradient></defs><rect width="1200" height="700" fill="url(#sky)"/><path d="M0 310 C120 220 260 230 360 260 C470 205 620 190 760 242 C860 180 975 170 1200 225 L1200 420 L0 420Z" fill="url(#mount)" opacity=".94"/><path d="M0 365 C170 285 280 290 420 330 C540 300 690 280 850 320 C980 275 1080 275 1200 300 L1200 470 L0 470Z" fill="#8d7a89" opacity=".75"/><rect y="470" width="1200" height="230" fill="#8a745f"/><g fill="url(#city)"><rect x="40" y="420" width="85" height="150" rx="4"/><rect x="108" y="378" width="72" height="192" rx="4"/><rect x="170" y="434" width="78" height="136" rx="4"/><rect x="240" y="392" width="112" height="178" rx="4"/><rect x="334" y="440" width="72" height="130" rx="4"/><rect x="396" y="360" width="98" height="210" rx="4"/><rect x="483" y="404" width="94" height="166" rx="4"/><rect x="565" y="442" width="82" height="128" rx="4"/><rect x="636" y="389" width="108" height="181" rx="4"/><rect x="727" y="418" width="88" height="152" rx="4"/><rect x="798" y="350" width="120" height="220" rx="4"/><rect x="905" y="430" width="82" height="140" rx="4"/><rect x="972" y="396" width="110" height="174" rx="4"/><rect x="1067" y="440" width="72" height="130" rx="4"/></g><g fill="#efe8dd" opacity=".95"><rect x="122" y="418" width="24" height="24"/><rect x="154" y="418" width="24" height="24"/><rect x="255" y="420" width="28" height="24"/><rect x="289" y="420" width="28" height="24"/><rect x="430" y="410" width="28" height="24"/><rect x="470" y="410" width="28" height="24"/><rect x="667" y="422" width="26" height="24"/><rect x="705" y="422" width="26" height="24"/><rect x="829" y="398" width="30" height="24"/><rect x="870" y="398" width="30" height="24"/><rect x="994" y="434" width="28" height="24"/><rect x="1034" y="434" width="28" height="24"/></g><rect x="56" y="52" width="380" height="120" rx="24" fill="#ffffff" fill-opacity=".82" stroke="#c8d6ef"/><text x="88" y="100" font-family="Inter, Arial, sans-serif" font-size="42" font-weight="700" fill="#17212f">Afghanistan</text><text x="88" y="138" font-family="Inter, Arial, sans-serif" font-size="22" fill="#4d5b71">Panoramica generale del Paese</text></svg>