<svg xmlns="http://www.w3.org/2000/svg" viewBox="0 0 1200 630"><defs><linearGradient id="g" x1="0" y1="0" x2="1" y2="1"><stop offset="0%" stop-color="#10233b"/><stop offset="100%" stop-color="#376a95"/></linearGradient></defs><rect width="1200" height="630" rx="38" fill="url(#g)"/><circle cx="1064" cy="72" r="98" fill="#ffffff" fill-opacity=".09"/><circle cx="1140" cy="106" r="124" fill="#ffffff" fill-opacity=".05"/><circle cx="54" cy="586" r="120" fill="#ffffff" fill-opacity=".04"/><rect x="68" y="64" width="670" height="502" rx="34" fill="#0d172b" fill-opacity=".18" stroke="#ffffff" stroke-opacity=".12"/><text x="90" y="142" font-family="Inter, Arial, sans-serif" font-size="54" font-weight="700" fill="#ffffff">Quadro generale</text><text x="90" y="188" font-family="Inter, Arial, sans-serif" font-size="28" fill="#d9e6ff">Panoramica del Paese e del contesto politico</text><text x="90" y="250" font-family="Inter, Arial, sans-serif" font-size="26" fill="#eaf1ff" opacity=".84">Capitale</text><text x="90" y="284" font-family="Inter, Arial, sans-serif" font-size="26" fill="#eaf1ff" opacity=".84">Lingue ufficiali</text><text x="90" y="318" font-family="Inter, Arial, sans-serif" font-size="26" fill="#eaf1ff" opacity=".84">Contesto politico</text><rect x="90" y="478" width="174" height="14" rx="7" fill="#ffd87a" opacity=".92"/><rect x="90" y="514" width="306" height="12" rx="6" fill="#ffffff" fill-opacity=".34"/><rect x="416" y="514" width="188" height="12" rx="6" fill="#ffffff" fill-opacity=".18"/><path d="M768 360c52-88 104-140 154-140 38 0 72 28 122 92" fill="none" stroke="#ffd87a" stroke-width="16" stroke-linecap="round"/><rect x="762" y="112" width="290" height="156" rx="32" fill="#a1c9ff" fill-opacity=".18" stroke="#a1c9ff"/><circle cx="830" cy="186" r="16" fill="#ffd87a" opacity=".95"/><circle cx="880" cy="186" r="16" fill="#ffffff" fill-opacity=".55"/><circle cx="930" cy="186" r="16" fill="#ffffff" fill-opacity=".32"/></svg>