<svg xmlns="http://www.w3.org/2000/svg" viewBox="0 0 1200 630"><defs><linearGradient id="g" x1="0" y1="0" x2="1" y2="1"><stop offset="0%" stop-color="#153324"/><stop offset="100%" stop-color="#1d6f50"/></linearGradient></defs><rect width="1200" height="630" rx="38" fill="url(#g)"/><circle cx="1064" cy="72" r="98" fill="#ffffff" fill-opacity=".09"/><circle cx="1140" cy="106" r="124" fill="#ffffff" fill-opacity=".05"/><circle cx="54" cy="586" r="120" fill="#ffffff" fill-opacity=".04"/><rect x="68" y="64" width="670" height="502" rx="34" fill="#0d172b" fill-opacity=".18" stroke="#ffffff" stroke-opacity=".12"/><text x="90" y="142" font-family="Inter, Arial, sans-serif" font-size="54" font-weight="700" fill="#ffffff">Lavoro e università</text><text x="90" y="188" font-family="Inter, Arial, sans-serif" font-size="28" fill="#d9e6ff">Studio e occupazione femminile sotto restrizione</text><text x="90" y="250" font-family="Inter, Arial, sans-serif" font-size="26" fill="#eaf1ff" opacity=".84">Università 2022</text><text x="90" y="284" font-family="Inter, Arial, sans-serif" font-size="26" fill="#eaf1ff" opacity=".84">ONG e settore pubblico</text><text x="90" y="318" font-family="Inter, Arial, sans-serif" font-size="26" fill="#eaf1ff" opacity=".84">Impatto economico</text><rect x="90" y="478" width="174" height="14" rx="7" fill="#9bedc5" opacity=".92"/><rect x="90" y="514" width="306" height="12" rx="6" fill="#ffffff" fill-opacity=".34"/><rect x="416" y="514" width="188" height="12" rx="6" fill="#ffffff" fill-opacity=".18"/><rect x="770" y="122" width="118" height="150" rx="22" fill="#84cbae" fill-opacity=".22" stroke="#84cbae"/><rect x="908" y="156" width="138" height="116" rx="24" fill="#9bedc5" fill-opacity=".75"/><path d="M952 156v-24c0-22 16-36 36-36h10c22 0 38 14 38 36v24" fill="none" stroke="#fff" stroke-width="10"/><path d="M804 316h220" stroke="#fff" stroke-opacity=".45" stroke-width="12" stroke-linecap="round"/></svg>