<svg xmlns="http://www.w3.org/2000/svg" viewBox="0 0 1200 630"><defs><linearGradient id="g" x1="0" y1="0" x2="1" y2="1"><stop offset="0%" stop-color="#4d3613"/><stop offset="100%" stop-color="#b36a15"/></linearGradient></defs><rect width="1200" height="630" rx="38" fill="url(#g)"/><circle cx="1064" cy="72" r="98" fill="#ffffff" fill-opacity=".09"/><circle cx="1140" cy="106" r="124" fill="#ffffff" fill-opacity=".05"/><circle cx="54" cy="586" r="120" fill="#ffffff" fill-opacity=".04"/><rect x="68" y="64" width="670" height="502" rx="34" fill="#0d172b" fill-opacity=".18" stroke="#ffffff" stroke-opacity=".12"/><text x="90" y="142" font-family="Inter, Arial, sans-serif" font-size="54" font-weight="700" fill="#ffffff">Istruzione</text><text x="90" y="188" font-family="Inter, Arial, sans-serif" font-size="28" fill="#d9e6ff">Esclusione delle ragazze dalle classi superiori</text><text x="90" y="250" font-family="Inter, Arial, sans-serif" font-size="26" fill="#eaf1ff" opacity=".84">Scuola secondaria</text><text x="90" y="284" font-family="Inter, Arial, sans-serif" font-size="26" fill="#eaf1ff" opacity=".84">Effetti sul futuro</text><text x="90" y="318" font-family="Inter, Arial, sans-serif" font-size="26" fill="#eaf1ff" opacity=".84">Comunicati ONU 2025</text><rect x="90" y="478" width="174" height="14" rx="7" fill="#ffd46d" opacity=".92"/><rect x="90" y="514" width="306" height="12" rx="6" fill="#ffffff" fill-opacity=".34"/><rect x="416" y="514" width="188" height="12" rx="6" fill="#ffffff" fill-opacity=".18"/><path d="M790 275h260l-130-84z" fill="#ffd46d" opacity=".9"/><rect x="816" y="275" width="208" height="112" rx="10" fill="#f3c671" fill-opacity=".22" stroke="#f3c671"/><rect x="852" y="305" width="40" height="82" rx="8" fill="#ffffff" fill-opacity=".7"/><rect x="920" y="305" width="40" height="82" rx="8" fill="#ffffff" fill-opacity=".48"/><rect x="988" y="305" width="40" height="82" rx="8" fill="#ffffff" fill-opacity=".48"/></svg>