<svg xmlns="http://www.w3.org/2000/svg" viewBox="0 0 900 700"><defs><linearGradient id="bg" x1="0" y1="0" x2="1" y2="1"><stop offset="0%" stop-color="#eef4ff"/><stop offset="100%" stop-color="#d9e7ff"/></linearGradient></defs><rect width="900" height="700" rx="36" fill="url(#bg)"/><g fill="none" stroke="#9ab2d9" stroke-width="4" opacity=".7"><path d="M110 150H790"/><path d="M110 250H790"/><path d="M110 350H790"/><path d="M110 450H790"/><path d="M110 550H790"/><path d="M180 80V620"/><path d="M320 80V620"/><path d="M460 80V620"/><path d="M600 80V620"/><path d="M740 80V620"/></g><path d="M235 225 L300 185 L390 200 L470 160 L580 185 L650 245 L690 320 L670 405 L620 475 L545 505 L490 565 L408 553 L335 590 L255 560 L215 500 L150 455 L135 375 L172 312 Z" fill="#ffffff" stroke="#db4242" stroke-width="9" stroke-linejoin="round"/><circle cx="468" cy="330" r="11" fill="#2563eb"/><text x="492" y="338" font-family="Inter, Arial, sans-serif" font-size="30" font-weight="700" fill="#1b4cc8">Kabul</text><text x="84" y="116" font-family="Inter, Arial, sans-serif" font-size="26" font-weight="700" fill="#24324a">Posizione in Asia centrale</text><text x="90" y="650" font-family="Inter, Arial, sans-serif" font-size="22" fill="#4c5b73">Confini terrestri con Iran, Pakistan, Turkmenistan, Uzbekistan, Tagikistan e Cina</text></svg>